<svg xmlns="http://www.w3.org/2000/svg" viewBox="0 0 400 600" width="100%" height="100%">
  <rect width="400" height="600" rx="16" fill="#ffffff" stroke="#cbd5e1" stroke-width="2"/>
  <rect width="400" height="70" rx="16" fill="#059669" />
  
  <text x="200" y="42" font-family="'Outfit', sans-serif" font-size="18" fill="#ffffff" font-weight="bold" text-anchor="middle">BUKTI TRANSFER BERHASIL</text>
  
  <circle cx="200" cy="150" r="40" fill="#f0fdf4" />
  <path d="M185 150 l10 10 l20 -20" stroke="#059669" stroke-width="4" fill="none" stroke-linecap="round" stroke-linejoin="round"/>
  
  <text x="200" y="220" font-family="'Inter', sans-serif" font-size="28" fill="#0f172a" font-weight="800" text-anchor="middle">Rp 250.000</text>
  <text x="200" y="240" font-family="'Inter', sans-serif" font-size="12" fill="#64748b" text-anchor="middle">Biaya Formulir PPDB Online</text>
  
  <line x1="40" y1="270" x2="360" y2="270" stroke="#e2e8f0" stroke-width="2" stroke-dasharray="6 4" />
  
  <g transform="translate(40, 300)" font-family="'Inter', sans-serif" font-size="13" fill="#64748b">
    <text x="0" y="20">Penerima:</text>
    <text x="320" y="20" fill="#0f172a" font-weight="bold" text-anchor="end">YAYASAN ROYAL AT-TIN</text>
    
    <text x="0" y="55">Bank Penerima:</text>
    <text x="320" y="55" fill="#0f172a" font-weight="bold" text-anchor="end">BANK SYARIAH INDONESIA (BSI)</text>
    
    <text x="0" y="90">No. Rekening:</text>
    <text x="320" y="90" fill="#0f172a" font-weight="bold" text-anchor="end">7123456789</text>
    
    <text x="0" y="125">Tanggal / Jam:</text>
    <text x="320" y="125" fill="#0f172a" text-anchor="end">2 Agustus 2026, 09:20 WIB</text>
    
    <text x="0" y="160">No. Referensi:</text>
    <text x="320" y="160" fill="#0f172a" text-anchor="end">REF-PPDB-889977</text>

    <text x="0" y="195">Status:</text>
    <text x="320" y="195" fill="#059669" font-weight="bold" text-anchor="end">SUKSES / LUNAS</text>
  </g>

  <rect x="40" y="520" width="320" height="40" rx="8" fill="#f8fafc" stroke="#e2e8f0" />
  <text x="200" y="545" font-family="'Inter', sans-serif" font-size="11" fill="#64748b" text-anchor="middle">Bukti transfer ini sah diterbitkan oleh Bank Pengirim.</text>
</svg>
